<mxfile host="app.diagrams.net" modified="2021-09-04T14:23:34.844Z" agent="5.0 (Windows NT 10.0; Win64; x64) AppleWebKit/537.36 (KHTML, like Gecko) Chrome/92.0.4515.131 Safari/537.36 OPR/78.0.4093.186" etag="tvhPVeWaWMleWUtTcehB" version="15.0.6" type="github">
  <diagram id="DEIwr0P-Ls0PVEyQFpXc" name="Page-1">
    <mxGraphModel dx="1422" dy="833" grid="1" gridSize="10" guides="1" tooltips="1" connect="1" arrows="1" fold="1" page="1" pageScale="1" pageWidth="827" pageHeight="1169" math="0" shadow="0">
      <root>
        <mxCell id="0" />
        <mxCell id="1" parent="0" />
        <mxCell id="JO1MAEYbXoofxysluQtS-5" style="edgeStyle=orthogonalEdgeStyle;rounded=0;orthogonalLoop=1;jettySize=auto;html=1;" edge="1" parent="1" source="JO1MAEYbXoofxysluQtS-3" target="JO1MAEYbXoofxysluQtS-4">
          <mxGeometry relative="1" as="geometry" />
        </mxCell>
        <mxCell id="JO1MAEYbXoofxysluQtS-3" value="&lt;font style=&quot;font-size: 21px&quot;&gt;Список, действующих компаний&lt;/font&gt;" style="rounded=1;whiteSpace=wrap;html=1;" vertex="1" parent="1">
          <mxGeometry x="70" y="340" width="240" height="60" as="geometry" />
        </mxCell>
        <mxCell id="JO1MAEYbXoofxysluQtS-4" value="&lt;font style=&quot;font-size: 19px&quot;&gt;Список, действующих компаний, отобранных по нужному коду ОКВЭД&lt;/font&gt;" style="rounded=1;whiteSpace=wrap;html=1;" vertex="1" parent="1">
          <mxGeometry x="380" y="340" width="360" height="60" as="geometry" />
        </mxCell>
      </root>
    </mxGraphModel>
  </diagram>
</mxfile>
